<svg width="1815" height="652" viewBox="0 0 1815 652" fill="none" xmlns="http://www.w3.org/2000/svg">
<g opacity="0.131">
<path d="M248.601 76.8787C239.457 76.8787 230.307 77.9201 221.406 79.9738C212.613 82.0025 204.034 85.0251 195.907 88.9574C187.781 92.8898 180.087 97.7415 173.039 103.378C165.905 109.083 159.41 115.611 153.736 122.782L27.6883 282.057C19.1386 292.861 12.5495 304.917 8.10412 317.891C3.77235 330.533 1.57598 343.736 1.57598 357.131C1.57598 370.527 3.77235 383.73 8.104 396.372C12.5495 409.346 19.1386 421.402 27.6883 432.206L153.736 591.481C159.41 598.651 165.905 605.18 173.039 610.885C180.086 616.521 187.78 621.373 195.907 625.305C204.034 629.238 212.613 632.26 221.406 634.289C230.307 636.343 239.457 637.384 248.601 637.384H575.713C584.857 637.384 594.007 636.343 602.908 634.289C611.701 632.26 620.28 629.238 628.407 625.305C636.534 621.373 644.228 616.521 651.275 610.885C658.409 605.18 664.904 598.651 670.578 591.481L796.626 432.206C805.175 421.402 811.765 409.346 816.21 396.372C820.542 383.73 822.738 370.527 822.738 357.131C822.738 343.736 820.542 330.533 816.21 317.891C811.765 304.917 805.175 292.861 796.626 282.057L670.578 122.782C664.904 115.611 658.409 109.083 651.275 103.378C644.228 97.7415 636.534 92.8898 628.407 88.9574C620.28 85.0251 611.701 82.0025 602.908 79.9738C594.007 77.9201 584.857 76.8787 575.713 76.8787H248.601ZM248.601 75.8789H575.713C612.994 75.8789 648.227 92.9276 671.362 122.161L797.41 281.437C832.514 325.795 832.514 388.468 797.41 432.826L671.362 592.102C648.227 621.335 612.994 638.384 575.713 638.384H248.601C211.32 638.384 176.087 621.335 152.952 592.102L26.9044 432.826C-8.19995 388.468 -8.19983 325.795 26.9044 281.437L152.952 122.161C176.087 92.9276 211.321 75.8789 248.601 75.8789Z" fill="white"/>
</g>
<g opacity="0.131">
<path d="M911.277 89.5257C902.133 89.5257 892.983 90.5671 884.082 92.6208C875.289 94.6494 866.71 97.6721 858.583 101.604C850.456 105.537 842.762 110.388 835.715 116.025C828.581 121.73 822.086 128.258 816.412 135.429L690.364 294.704C681.814 305.508 675.225 317.564 670.78 330.538C666.448 343.18 664.252 356.383 664.252 369.778C664.252 383.174 666.448 396.377 670.78 409.019C675.225 421.993 681.814 434.049 690.364 444.853L816.412 604.128C822.086 611.298 828.581 617.827 835.715 623.532C842.762 629.168 850.456 634.02 858.583 637.952C866.71 641.885 875.289 644.907 884.082 646.936C892.983 648.99 902.133 650.031 911.277 650.031H1238.39C1247.53 650.031 1256.68 648.99 1265.58 646.936C1274.38 644.907 1282.96 641.885 1291.08 637.952C1299.21 634.02 1306.9 629.168 1313.95 623.532C1321.09 617.827 1327.58 611.298 1333.25 604.128L1459.3 444.853C1467.85 434.049 1474.44 421.993 1478.89 409.019C1483.22 396.377 1485.41 383.174 1485.41 369.778C1485.41 356.383 1483.22 343.18 1478.89 330.538C1474.44 317.564 1467.85 305.508 1459.3 294.704L1333.25 135.429C1327.58 128.258 1321.09 121.73 1313.95 116.025C1306.9 110.388 1299.21 105.537 1291.08 101.604C1282.96 97.6721 1274.38 94.6494 1265.58 92.6208C1256.68 90.5671 1247.53 89.5257 1238.39 89.5257H911.277ZM911.277 88.5259H1238.39C1275.67 88.5259 1310.9 105.575 1334.04 134.808L1460.09 294.084C1495.19 338.442 1495.19 401.115 1460.09 445.473L1334.04 604.748C1310.9 633.982 1275.67 651.031 1238.39 651.031H911.277C873.996 651.031 838.763 633.982 815.628 604.748L689.58 445.473C654.476 401.115 654.476 338.442 689.58 294.084L815.628 134.808C838.763 105.575 873.996 88.5259 911.277 88.5259Z" fill="white"/>
</g>
<g opacity="0.131">
<path d="M1239.24 0.999813C1230.1 0.999813 1220.95 2.04118 1212.05 4.09494C1203.25 6.12355 1194.68 9.14617 1186.55 13.0785C1178.42 17.0109 1170.73 21.8626 1163.68 27.4986C1156.55 33.2041 1150.05 39.7325 1144.38 46.9028L1018.33 206.178C1009.78 216.982 1003.19 229.038 998.745 242.012C994.413 254.654 992.217 267.857 992.217 281.253C992.217 294.648 994.413 307.851 998.745 320.493C1003.19 333.467 1009.78 345.523 1018.33 356.327L1144.38 515.602C1150.05 522.772 1156.55 529.301 1163.68 535.006C1170.73 540.642 1178.42 545.494 1186.55 549.426C1194.67 553.359 1203.25 556.381 1212.05 558.41C1220.95 560.464 1230.1 561.505 1239.24 561.505H1566.35C1575.5 561.505 1584.65 560.464 1593.55 558.41C1602.34 556.381 1610.92 553.359 1619.05 549.426C1627.17 545.494 1634.87 540.642 1641.92 535.006C1649.05 529.301 1655.54 522.772 1661.22 515.602L1787.27 356.327C1795.82 345.523 1802.41 333.467 1806.85 320.493C1811.18 307.851 1813.38 294.648 1813.38 281.253C1813.38 267.857 1811.18 254.654 1806.85 242.012C1802.41 229.038 1795.82 216.982 1787.27 206.178L1661.22 46.9028C1655.54 39.7325 1649.05 33.2041 1641.92 27.4986C1634.87 21.8626 1627.17 17.0109 1619.05 13.0785C1610.92 9.14617 1602.34 6.12355 1593.55 4.09494C1584.65 2.04118 1575.5 0.999813 1566.35 0.999813H1239.24ZM1239.24 0H1566.35C1603.63 0 1638.87 17.0487 1662 46.2823L1788.05 205.558C1823.15 249.916 1823.15 312.589 1788.05 356.947L1662 516.223C1638.87 545.456 1603.63 562.505 1566.35 562.505H1239.24C1201.96 562.505 1166.73 545.456 1143.59 516.223L1017.54 356.947C982.441 312.589 982.441 249.916 1017.54 205.558L1143.59 46.2823C1166.73 17.0487 1201.96 0 1239.24 0Z" fill="white"/>
</g>
<g style="mix-blend-mode:luminosity">
<path d="M475.811 635.554H428.598V639.769H475.811V635.554Z" fill="url(#paint0_linear_45_2881)"/>
<path d="M1092.35 443.537L1062 407.37L1058.77 410.079L1089.12 446.246L1092.35 443.537Z" fill="url(#paint1_linear_45_2881)"/>
<path d="M1405.68 220.195L1375.33 184.028L1372.1 186.737L1402.45 222.905L1405.68 220.195Z" fill="url(#paint2_linear_45_2881)"/>
<path d="M655.952 105.647L685.035 142.851L688.357 140.254L659.273 103.05L655.952 105.647Z" fill="url(#paint3_linear_45_2881)"/>
</g>
<defs>
<linearGradient id="paint0_linear_45_2881" x1="473.639" y1="637.662" x2="428.598" y2="637.662" gradientUnits="userSpaceOnUse">
<stop stop-color="#268AFF"/>
<stop offset="1" stop-color="#134580" stop-opacity="0"/>
</linearGradient>
<linearGradient id="paint1_linear_45_2881" x1="1061.78" y1="410.388" x2="1090.73" y2="444.892" gradientUnits="userSpaceOnUse">
<stop stop-color="#FF2626"/>
<stop offset="1" stop-color="#134580" stop-opacity="0"/>
</linearGradient>
<linearGradient id="paint2_linear_45_2881" x1="1375.11" y1="187.046" x2="1404.06" y2="221.55" gradientUnits="userSpaceOnUse">
<stop stop-color="#26FF71"/>
<stop offset="1" stop-color="#134580" stop-opacity="0"/>
</linearGradient>
<linearGradient id="paint3_linear_45_2881" x1="685.358" y1="139.841" x2="657.613" y2="104.348" gradientUnits="userSpaceOnUse">
<stop stop-color="#C526FF"/>
<stop offset="1" stop-color="#134580" stop-opacity="0"/>
</linearGradient>
</defs>
</svg>
