<svg width="309" height="99" viewBox="0 0 309 99" fill="none" xmlns="http://www.w3.org/2000/svg">
<rect width="309" height="99" fill="white"/>
<path d="M6.96442 49.0692L42.4008 9.11419L42.4008 26.1583L22.2187 49.0692L6.96442 49.0692Z" fill="#D9D9D9"/>
<path d="M6.96442 49.0692L42.4008 9.11419L42.4008 26.1583L22.2187 49.0692L6.96442 49.0692Z" fill="#FF0000"/>
<path d="M45.3674 10.7206L84.8742 46.9574L67.2129 46.046L44.5517 25.3997L45.3674 10.7206Z" fill="#10186C"/>
<path d="M45.8342 86.4758L5.12136 51.5006L22.8041 51.8561L46.1524 71.7788L45.8342 86.4758Z" fill="#FFA703"/>
<path d="M83.1703 47.9928L48.9105 88.8896L48.4145 71.8522L67.9221 48.405L83.1703 47.9928Z" fill="#314B32"/>
<path d="M108.977 39.1307C108.841 37.7557 108.256 36.6875 107.222 35.9261C106.187 35.1648 104.784 34.7841 103.011 34.7841C101.807 34.7841 100.79 34.9545 99.9602 35.2955C99.1306 35.625 98.4943 36.0852 98.0511 36.6761C97.6193 37.267 97.4033 37.9375 97.4033 38.6875C97.3806 39.3125 97.5113 39.858 97.7954 40.3239C98.0908 40.7898 98.4943 41.1932 99.0056 41.5341C99.517 41.8636 100.108 42.1534 100.778 42.4034C101.449 42.642 102.165 42.8466 102.926 43.017L106.062 43.767C107.585 44.108 108.983 44.5625 110.256 45.1307C111.528 45.6989 112.631 46.3977 113.562 47.2273C114.494 48.0568 115.216 49.0341 115.727 50.1591C116.25 51.2841 116.517 52.5739 116.528 54.0284C116.517 56.1648 115.972 58.017 114.892 59.5852C113.824 61.142 112.278 62.3523 110.256 63.2159C108.244 64.0682 105.818 64.4943 102.977 64.4943C100.159 64.4943 97.7045 64.0625 95.6136 63.1989C93.534 62.3352 91.909 61.0568 90.7386 59.3636C89.5795 57.6591 88.9715 55.5511 88.9147 53.0398H96.0568C96.1363 54.2102 96.4715 55.1875 97.0624 55.9716C97.6647 56.7443 98.4658 57.3295 99.4658 57.7273C100.477 58.1136 101.619 58.3068 102.892 58.3068C104.142 58.3068 105.227 58.125 106.148 57.7614C107.079 57.3977 107.801 56.892 108.312 56.2443C108.824 55.5966 109.079 54.8523 109.079 54.0114C109.079 53.2273 108.847 52.5682 108.381 52.0341C107.926 51.5 107.256 51.0455 106.369 50.6705C105.494 50.2955 104.42 49.9545 103.148 49.6477L99.3465 48.6932C96.4033 47.9773 94.0795 46.858 92.3749 45.3352C90.6704 43.8125 89.8238 41.7614 89.8352 39.1818C89.8238 37.0682 90.3863 35.2216 91.5227 33.642C92.6704 32.0625 94.2443 30.8295 96.2443 29.9432C98.2443 29.0568 100.517 28.6136 103.062 28.6136C105.653 28.6136 107.915 29.0568 109.847 29.9432C111.79 30.8295 113.301 32.0625 114.381 33.642C115.46 35.2216 116.017 37.0511 116.051 39.1307H108.977ZM128.618 48.8636V64H121.356V29.0909H128.413V42.4375H128.72C129.311 40.892 130.266 39.6818 131.584 38.8068C132.902 37.9205 134.555 37.4773 136.544 37.4773C138.362 37.4773 139.947 37.875 141.3 38.6705C142.663 39.4545 143.72 40.5852 144.47 42.0625C145.231 43.5284 145.606 45.2841 145.595 47.3295V64H138.334V48.625C138.345 47.0114 137.936 45.7557 137.106 44.858C136.288 43.9602 135.141 43.5114 133.663 43.5114C132.675 43.5114 131.8 43.7216 131.038 44.142C130.288 44.5625 129.697 45.1761 129.266 45.983C128.845 46.7784 128.629 47.7386 128.618 48.8636ZM158.776 64.4943C157.105 64.4943 155.616 64.2045 154.31 63.625C153.003 63.0341 151.969 62.1648 151.207 61.017C150.457 59.858 150.082 58.4148 150.082 56.6875C150.082 55.233 150.349 54.0114 150.883 53.0227C151.418 52.0341 152.145 51.2386 153.065 50.6364C153.986 50.0341 155.031 49.5795 156.202 49.2727C157.383 48.9659 158.622 48.75 159.918 48.625C161.44 48.4659 162.668 48.3182 163.599 48.1818C164.531 48.0341 165.207 47.8182 165.628 47.5341C166.048 47.25 166.258 46.8295 166.258 46.2727V46.1705C166.258 45.0909 165.918 44.2557 165.236 43.6648C164.565 43.0739 163.611 42.7784 162.372 42.7784C161.065 42.7784 160.026 43.0682 159.253 43.6477C158.48 44.2159 157.969 44.9318 157.719 45.7955L151.003 45.25C151.344 43.6591 152.014 42.2841 153.014 41.125C154.014 39.9545 155.304 39.0568 156.883 38.4318C158.474 37.7955 160.315 37.4773 162.406 37.4773C163.861 37.4773 165.253 37.6477 166.582 37.9886C167.923 38.3295 169.111 38.858 170.145 39.5739C171.19 40.2898 172.014 41.2102 172.616 42.3352C173.219 43.4489 173.52 44.7841 173.52 46.3409V64H166.633V60.3693H166.429C166.008 61.1875 165.446 61.9091 164.741 62.5341C164.037 63.1477 163.19 63.6307 162.202 63.983C161.213 64.3239 160.071 64.4943 158.776 64.4943ZM160.855 59.483C161.923 59.483 162.866 59.2727 163.685 58.8523C164.503 58.4205 165.145 57.8409 165.611 57.1136C166.077 56.3864 166.31 55.5625 166.31 54.642V51.8636C166.082 52.0114 165.77 52.1477 165.372 52.2727C164.986 52.3864 164.548 52.4943 164.06 52.5966C163.571 52.6875 163.082 52.7727 162.594 52.8523C162.105 52.9205 161.662 52.983 161.264 53.0398C160.412 53.1648 159.668 53.3636 159.031 53.6364C158.395 53.9091 157.901 54.2784 157.548 54.7443C157.196 55.1989 157.02 55.767 157.02 56.4489C157.02 57.4375 157.378 58.1932 158.094 58.7159C158.821 59.2273 159.741 59.483 160.855 59.483ZM179.153 64V37.8182H186.193V42.3864H186.466C186.943 40.7614 187.744 39.5341 188.869 38.7045C189.994 37.8636 191.29 37.4432 192.756 37.4432C193.119 37.4432 193.511 37.4659 193.932 37.5114C194.352 37.5568 194.722 37.6193 195.04 37.6989V44.142C194.699 44.0398 194.227 43.9489 193.625 43.8693C193.023 43.7898 192.472 43.75 191.972 43.75C190.903 43.75 189.949 43.983 189.108 44.4489C188.278 44.9034 187.619 45.5398 187.131 46.358C186.653 47.1761 186.415 48.1193 186.415 49.1875V64H179.153ZM198.794 73.8182V37.8182H205.953V42.2159H206.277C206.595 41.5114 207.055 40.7955 207.658 40.0682C208.271 39.3295 209.067 38.7159 210.044 38.2273C211.033 37.7273 212.26 37.4773 213.726 37.4773C215.635 37.4773 217.396 37.9773 219.01 38.9773C220.624 39.9659 221.913 41.4602 222.879 43.4602C223.845 45.4489 224.328 47.9432 224.328 50.9432C224.328 53.8636 223.856 56.3295 222.913 58.3409C221.981 60.3409 220.709 61.858 219.095 62.892C217.493 63.9148 215.697 64.4261 213.709 64.4261C212.3 64.4261 211.101 64.1932 210.112 63.7273C209.135 63.2614 208.334 62.6761 207.709 61.9716C207.084 61.2557 206.606 60.5341 206.277 59.8068H206.055V73.8182H198.794ZM205.902 50.9091C205.902 52.4659 206.118 53.8239 206.55 54.983C206.981 56.142 207.606 57.0455 208.425 57.6932C209.243 58.3295 210.237 58.6477 211.408 58.6477C212.589 58.6477 213.589 58.3239 214.408 57.6761C215.226 57.017 215.845 56.108 216.266 54.9489C216.697 53.7784 216.913 52.4318 216.913 50.9091C216.913 49.3977 216.703 48.0682 216.283 46.9205C215.862 45.7727 215.243 44.875 214.425 44.2273C213.606 43.5795 212.601 43.2557 211.408 43.2557C210.226 43.2557 209.226 43.5682 208.408 44.1932C207.601 44.8182 206.981 45.7045 206.55 46.8523C206.118 48 205.902 49.3523 205.902 50.9091ZM233.413 64.4432C232.288 64.4432 231.322 64.0455 230.516 63.25C229.72 62.4432 229.322 61.4773 229.322 60.3523C229.322 59.2386 229.72 58.2841 230.516 57.4886C231.322 56.6932 232.288 56.2955 233.413 56.2955C234.504 56.2955 235.459 56.6932 236.277 57.4886C237.095 58.2841 237.504 59.2386 237.504 60.3523C237.504 61.1023 237.311 61.7898 236.925 62.4148C236.55 63.0284 236.055 63.5227 235.442 63.8977C234.828 64.2614 234.152 64.4432 233.413 64.4432ZM249.619 64H241.71L253.761 29.0909H263.273L275.307 64H267.398L258.653 37.0682H258.381L249.619 64ZM249.125 50.2784H267.807V56.0398H249.125V50.2784ZM286.889 29.0909V64H279.508V29.0909H286.889Z" fill="#014C6C"/>
<path d="M108.977 39.1307C108.841 37.7557 108.256 36.6875 107.222 35.9261C106.187 35.1648 104.784 34.7841 103.011 34.7841C101.807 34.7841 100.79 34.9545 99.9602 35.2955C99.1306 35.625 98.4943 36.0852 98.0511 36.6761C97.6193 37.267 97.4033 37.9375 97.4033 38.6875C97.3806 39.3125 97.5113 39.858 97.7954 40.3239C98.0908 40.7898 98.4943 41.1932 99.0056 41.5341C99.517 41.8636 100.108 42.1534 100.778 42.4034C101.449 42.642 102.165 42.8466 102.926 43.017L106.062 43.767C107.585 44.108 108.983 44.5625 110.256 45.1307C111.528 45.6989 112.631 46.3977 113.562 47.2273C114.494 48.0568 115.216 49.0341 115.727 50.1591C116.25 51.2841 116.517 52.5739 116.528 54.0284C116.517 56.1648 115.972 58.017 114.892 59.5852C113.824 61.142 112.278 62.3523 110.256 63.2159C108.244 64.0682 105.818 64.4943 102.977 64.4943C100.159 64.4943 97.7045 64.0625 95.6136 63.1989C93.534 62.3352 91.909 61.0568 90.7386 59.3636C89.5795 57.6591 88.9715 55.5511 88.9147 53.0398H96.0568C96.1363 54.2102 96.4715 55.1875 97.0624 55.9716C97.6647 56.7443 98.4658 57.3295 99.4658 57.7273C100.477 58.1136 101.619 58.3068 102.892 58.3068C104.142 58.3068 105.227 58.125 106.148 57.7614C107.079 57.3977 107.801 56.892 108.312 56.2443C108.824 55.5966 109.079 54.8523 109.079 54.0114C109.079 53.2273 108.847 52.5682 108.381 52.0341C107.926 51.5 107.256 51.0455 106.369 50.6705C105.494 50.2955 104.42 49.9545 103.148 49.6477L99.3465 48.6932C96.4033 47.9773 94.0795 46.858 92.3749 45.3352C90.6704 43.8125 89.8238 41.7614 89.8352 39.1818C89.8238 37.0682 90.3863 35.2216 91.5227 33.642C92.6704 32.0625 94.2443 30.8295 96.2443 29.9432C98.2443 29.0568 100.517 28.6136 103.062 28.6136C105.653 28.6136 107.915 29.0568 109.847 29.9432C111.79 30.8295 113.301 32.0625 114.381 33.642C115.46 35.2216 116.017 37.0511 116.051 39.1307H108.977ZM128.618 48.8636V64H121.356V29.0909H128.413V42.4375H128.72C129.311 40.892 130.266 39.6818 131.584 38.8068C132.902 37.9205 134.555 37.4773 136.544 37.4773C138.362 37.4773 139.947 37.875 141.3 38.6705C142.663 39.4545 143.72 40.5852 144.47 42.0625C145.231 43.5284 145.606 45.2841 145.595 47.3295V64H138.334V48.625C138.345 47.0114 137.936 45.7557 137.106 44.858C136.288 43.9602 135.141 43.5114 133.663 43.5114C132.675 43.5114 131.8 43.7216 131.038 44.142C130.288 44.5625 129.697 45.1761 129.266 45.983C128.845 46.7784 128.629 47.7386 128.618 48.8636ZM158.776 64.4943C157.105 64.4943 155.616 64.2045 154.31 63.625C153.003 63.0341 151.969 62.1648 151.207 61.017C150.457 59.858 150.082 58.4148 150.082 56.6875C150.082 55.233 150.349 54.0114 150.883 53.0227C151.418 52.0341 152.145 51.2386 153.065 50.6364C153.986 50.0341 155.031 49.5795 156.202 49.2727C157.383 48.9659 158.622 48.75 159.918 48.625C161.44 48.4659 162.668 48.3182 163.599 48.1818C164.531 48.0341 165.207 47.8182 165.628 47.5341C166.048 47.25 166.258 46.8295 166.258 46.2727V46.1705C166.258 45.0909 165.918 44.2557 165.236 43.6648C164.565 43.0739 163.611 42.7784 162.372 42.7784C161.065 42.7784 160.026 43.0682 159.253 43.6477C158.48 44.2159 157.969 44.9318 157.719 45.7955L151.003 45.25C151.344 43.6591 152.014 42.2841 153.014 41.125C154.014 39.9545 155.304 39.0568 156.883 38.4318C158.474 37.7955 160.315 37.4773 162.406 37.4773C163.861 37.4773 165.253 37.6477 166.582 37.9886C167.923 38.3295 169.111 38.858 170.145 39.5739C171.19 40.2898 172.014 41.2102 172.616 42.3352C173.219 43.4489 173.52 44.7841 173.52 46.3409V64H166.633V60.3693H166.429C166.008 61.1875 165.446 61.9091 164.741 62.5341C164.037 63.1477 163.19 63.6307 162.202 63.983C161.213 64.3239 160.071 64.4943 158.776 64.4943ZM160.855 59.483C161.923 59.483 162.866 59.2727 163.685 58.8523C164.503 58.4205 165.145 57.8409 165.611 57.1136C166.077 56.3864 166.31 55.5625 166.31 54.642V51.8636C166.082 52.0114 165.77 52.1477 165.372 52.2727C164.986 52.3864 164.548 52.4943 164.06 52.5966C163.571 52.6875 163.082 52.7727 162.594 52.8523C162.105 52.9205 161.662 52.983 161.264 53.0398C160.412 53.1648 159.668 53.3636 159.031 53.6364C158.395 53.9091 157.901 54.2784 157.548 54.7443C157.196 55.1989 157.02 55.767 157.02 56.4489C157.02 57.4375 157.378 58.1932 158.094 58.7159C158.821 59.2273 159.741 59.483 160.855 59.483ZM179.153 64V37.8182H186.193V42.3864H186.466C186.943 40.7614 187.744 39.5341 188.869 38.7045C189.994 37.8636 191.29 37.4432 192.756 37.4432C193.119 37.4432 193.511 37.4659 193.932 37.5114C194.352 37.5568 194.722 37.6193 195.04 37.6989V44.142C194.699 44.0398 194.227 43.9489 193.625 43.8693C193.023 43.7898 192.472 43.75 191.972 43.75C190.903 43.75 189.949 43.983 189.108 44.4489C188.278 44.9034 187.619 45.5398 187.131 46.358C186.653 47.1761 186.415 48.1193 186.415 49.1875V64H179.153ZM198.794 73.8182V37.8182H205.953V42.2159H206.277C206.595 41.5114 207.055 40.7955 207.658 40.0682C208.271 39.3295 209.067 38.7159 210.044 38.2273C211.033 37.7273 212.26 37.4773 213.726 37.4773C215.635 37.4773 217.396 37.9773 219.01 38.9773C220.624 39.9659 221.913 41.4602 222.879 43.4602C223.845 45.4489 224.328 47.9432 224.328 50.9432C224.328 53.8636 223.856 56.3295 222.913 58.3409C221.981 60.3409 220.709 61.858 219.095 62.892C217.493 63.9148 215.697 64.4261 213.709 64.4261C212.3 64.4261 211.101 64.1932 210.112 63.7273C209.135 63.2614 208.334 62.6761 207.709 61.9716C207.084 61.2557 206.606 60.5341 206.277 59.8068H206.055V73.8182H198.794ZM205.902 50.9091C205.902 52.4659 206.118 53.8239 206.55 54.983C206.981 56.142 207.606 57.0455 208.425 57.6932C209.243 58.3295 210.237 58.6477 211.408 58.6477C212.589 58.6477 213.589 58.3239 214.408 57.6761C215.226 57.017 215.845 56.108 216.266 54.9489C216.697 53.7784 216.913 52.4318 216.913 50.9091C216.913 49.3977 216.703 48.0682 216.283 46.9205C215.862 45.7727 215.243 44.875 214.425 44.2273C213.606 43.5795 212.601 43.2557 211.408 43.2557C210.226 43.2557 209.226 43.5682 208.408 44.1932C207.601 44.8182 206.981 45.7045 206.55 46.8523C206.118 48 205.902 49.3523 205.902 50.9091ZM233.413 64.4432C232.288 64.4432 231.322 64.0455 230.516 63.25C229.72 62.4432 229.322 61.4773 229.322 60.3523C229.322 59.2386 229.72 58.2841 230.516 57.4886C231.322 56.6932 232.288 56.2955 233.413 56.2955C234.504 56.2955 235.459 56.6932 236.277 57.4886C237.095 58.2841 237.504 59.2386 237.504 60.3523C237.504 61.1023 237.311 61.7898 236.925 62.4148C236.55 63.0284 236.055 63.5227 235.442 63.8977C234.828 64.2614 234.152 64.4432 233.413 64.4432ZM249.619 64H241.71L253.761 29.0909H263.273L275.307 64H267.398L258.653 37.0682H258.381L249.619 64ZM249.125 50.2784H267.807V56.0398H249.125V50.2784ZM286.889 29.0909V64H279.508V29.0909H286.889Z" fill="#014C6C"/>
<path d="M108.977 39.1307C108.841 37.7557 108.256 36.6875 107.222 35.9261C106.187 35.1648 104.784 34.7841 103.011 34.7841C101.807 34.7841 100.79 34.9545 99.9602 35.2955C99.1306 35.625 98.4943 36.0852 98.0511 36.6761C97.6193 37.267 97.4033 37.9375 97.4033 38.6875C97.3806 39.3125 97.5113 39.858 97.7954 40.3239C98.0908 40.7898 98.4943 41.1932 99.0056 41.5341C99.517 41.8636 100.108 42.1534 100.778 42.4034C101.449 42.642 102.165 42.8466 102.926 43.017L106.062 43.767C107.585 44.108 108.983 44.5625 110.256 45.1307C111.528 45.6989 112.631 46.3977 113.562 47.2273C114.494 48.0568 115.216 49.0341 115.727 50.1591C116.25 51.2841 116.517 52.5739 116.528 54.0284C116.517 56.1648 115.972 58.017 114.892 59.5852C113.824 61.142 112.278 62.3523 110.256 63.2159C108.244 64.0682 105.818 64.4943 102.977 64.4943C100.159 64.4943 97.7045 64.0625 95.6136 63.1989C93.534 62.3352 91.909 61.0568 90.7386 59.3636C89.5795 57.6591 88.9715 55.5511 88.9147 53.0398H96.0568C96.1363 54.2102 96.4715 55.1875 97.0624 55.9716C97.6647 56.7443 98.4658 57.3295 99.4658 57.7273C100.477 58.1136 101.619 58.3068 102.892 58.3068C104.142 58.3068 105.227 58.125 106.148 57.7614C107.079 57.3977 107.801 56.892 108.312 56.2443C108.824 55.5966 109.079 54.8523 109.079 54.0114C109.079 53.2273 108.847 52.5682 108.381 52.0341C107.926 51.5 107.256 51.0455 106.369 50.6705C105.494 50.2955 104.42 49.9545 103.148 49.6477L99.3465 48.6932C96.4033 47.9773 94.0795 46.858 92.3749 45.3352C90.6704 43.8125 89.8238 41.7614 89.8352 39.1818C89.8238 37.0682 90.3863 35.2216 91.5227 33.642C92.6704 32.0625 94.2443 30.8295 96.2443 29.9432C98.2443 29.0568 100.517 28.6136 103.062 28.6136C105.653 28.6136 107.915 29.0568 109.847 29.9432C111.79 30.8295 113.301 32.0625 114.381 33.642C115.46 35.2216 116.017 37.0511 116.051 39.1307H108.977ZM128.618 48.8636V64H121.356V29.0909H128.413V42.4375H128.72C129.311 40.892 130.266 39.6818 131.584 38.8068C132.902 37.9205 134.555 37.4773 136.544 37.4773C138.362 37.4773 139.947 37.875 141.3 38.6705C142.663 39.4545 143.72 40.5852 144.47 42.0625C145.231 43.5284 145.606 45.2841 145.595 47.3295V64H138.334V48.625C138.345 47.0114 137.936 45.7557 137.106 44.858C136.288 43.9602 135.141 43.5114 133.663 43.5114C132.675 43.5114 131.8 43.7216 131.038 44.142C130.288 44.5625 129.697 45.1761 129.266 45.983C128.845 46.7784 128.629 47.7386 128.618 48.8636ZM158.776 64.4943C157.105 64.4943 155.616 64.2045 154.31 63.625C153.003 63.0341 151.969 62.1648 151.207 61.017C150.457 59.858 150.082 58.4148 150.082 56.6875C150.082 55.233 150.349 54.0114 150.883 53.0227C151.418 52.0341 152.145 51.2386 153.065 50.6364C153.986 50.0341 155.031 49.5795 156.202 49.2727C157.383 48.9659 158.622 48.75 159.918 48.625C161.44 48.4659 162.668 48.3182 163.599 48.1818C164.531 48.0341 165.207 47.8182 165.628 47.5341C166.048 47.25 166.258 46.8295 166.258 46.2727V46.1705C166.258 45.0909 165.918 44.2557 165.236 43.6648C164.565 43.0739 163.611 42.7784 162.372 42.7784C161.065 42.7784 160.026 43.0682 159.253 43.6477C158.48 44.2159 157.969 44.9318 157.719 45.7955L151.003 45.25C151.344 43.6591 152.014 42.2841 153.014 41.125C154.014 39.9545 155.304 39.0568 156.883 38.4318C158.474 37.7955 160.315 37.4773 162.406 37.4773C163.861 37.4773 165.253 37.6477 166.582 37.9886C167.923 38.3295 169.111 38.858 170.145 39.5739C171.19 40.2898 172.014 41.2102 172.616 42.3352C173.219 43.4489 173.52 44.7841 173.52 46.3409V64H166.633V60.3693H166.429C166.008 61.1875 165.446 61.9091 164.741 62.5341C164.037 63.1477 163.19 63.6307 162.202 63.983C161.213 64.3239 160.071 64.4943 158.776 64.4943ZM160.855 59.483C161.923 59.483 162.866 59.2727 163.685 58.8523C164.503 58.4205 165.145 57.8409 165.611 57.1136C166.077 56.3864 166.31 55.5625 166.31 54.642V51.8636C166.082 52.0114 165.77 52.1477 165.372 52.2727C164.986 52.3864 164.548 52.4943 164.06 52.5966C163.571 52.6875 163.082 52.7727 162.594 52.8523C162.105 52.9205 161.662 52.983 161.264 53.0398C160.412 53.1648 159.668 53.3636 159.031 53.6364C158.395 53.9091 157.901 54.2784 157.548 54.7443C157.196 55.1989 157.02 55.767 157.02 56.4489C157.02 57.4375 157.378 58.1932 158.094 58.7159C158.821 59.2273 159.741 59.483 160.855 59.483ZM179.153 64V37.8182H186.193V42.3864H186.466C186.943 40.7614 187.744 39.5341 188.869 38.7045C189.994 37.8636 191.29 37.4432 192.756 37.4432C193.119 37.4432 193.511 37.4659 193.932 37.5114C194.352 37.5568 194.722 37.6193 195.04 37.6989V44.142C194.699 44.0398 194.227 43.9489 193.625 43.8693C193.023 43.7898 192.472 43.75 191.972 43.75C190.903 43.75 189.949 43.983 189.108 44.4489C188.278 44.9034 187.619 45.5398 187.131 46.358C186.653 47.1761 186.415 48.1193 186.415 49.1875V64H179.153ZM198.794 73.8182V37.8182H205.953V42.2159H206.277C206.595 41.5114 207.055 40.7955 207.658 40.0682C208.271 39.3295 209.067 38.7159 210.044 38.2273C211.033 37.7273 212.26 37.4773 213.726 37.4773C215.635 37.4773 217.396 37.9773 219.01 38.9773C220.624 39.9659 221.913 41.4602 222.879 43.4602C223.845 45.4489 224.328 47.9432 224.328 50.9432C224.328 53.8636 223.856 56.3295 222.913 58.3409C221.981 60.3409 220.709 61.858 219.095 62.892C217.493 63.9148 215.697 64.4261 213.709 64.4261C212.3 64.4261 211.101 64.1932 210.112 63.7273C209.135 63.2614 208.334 62.6761 207.709 61.9716C207.084 61.2557 206.606 60.5341 206.277 59.8068H206.055V73.8182H198.794ZM205.902 50.9091C205.902 52.4659 206.118 53.8239 206.55 54.983C206.981 56.142 207.606 57.0455 208.425 57.6932C209.243 58.3295 210.237 58.6477 211.408 58.6477C212.589 58.6477 213.589 58.3239 214.408 57.6761C215.226 57.017 215.845 56.108 216.266 54.9489C216.697 53.7784 216.913 52.4318 216.913 50.9091C216.913 49.3977 216.703 48.0682 216.283 46.9205C215.862 45.7727 215.243 44.875 214.425 44.2273C213.606 43.5795 212.601 43.2557 211.408 43.2557C210.226 43.2557 209.226 43.5682 208.408 44.1932C207.601 44.8182 206.981 45.7045 206.55 46.8523C206.118 48 205.902 49.3523 205.902 50.9091ZM233.413 64.4432C232.288 64.4432 231.322 64.0455 230.516 63.25C229.72 62.4432 229.322 61.4773 229.322 60.3523C229.322 59.2386 229.72 58.2841 230.516 57.4886C231.322 56.6932 232.288 56.2955 233.413 56.2955C234.504 56.2955 235.459 56.6932 236.277 57.4886C237.095 58.2841 237.504 59.2386 237.504 60.3523C237.504 61.1023 237.311 61.7898 236.925 62.4148C236.55 63.0284 236.055 63.5227 235.442 63.8977C234.828 64.2614 234.152 64.4432 233.413 64.4432ZM249.619 64H241.71L253.761 29.0909H263.273L275.307 64H267.398L258.653 37.0682H258.381L249.619 64ZM249.125 50.2784H267.807V56.0398H249.125V50.2784ZM286.889 29.0909V64H279.508V29.0909H286.889Z" fill="#014C6C"/>
</svg>
